<mxfile host="app.diagrams.net" modified="2023-12-10T14:47:55.911Z" agent="Mozilla/5.0 (Windows NT 10.0; Win64; x64) AppleWebKit/537.36 (KHTML, like Gecko) Chrome/118.0.5993.731 YaBrowser/23.11.1.731 Yowser/2.5 Safari/537.36" etag="Ofmvka0hEOWti10j6eiu" version="22.1.7" type="device">
  <diagram name="Страница — 1" id="kmgHBPfspCu2aQitKDKI">
    <mxGraphModel dx="794" dy="679" grid="1" gridSize="10" guides="1" tooltips="1" connect="1" arrows="1" fold="1" page="1" pageScale="1" pageWidth="827" pageHeight="1169" math="0" shadow="0">
      <root>
        <mxCell id="0" />
        <mxCell id="1" parent="0" />
        <mxCell id="9DcgQ7vxHi_gFNOY2U_U-14" style="edgeStyle=orthogonalEdgeStyle;rounded=0;orthogonalLoop=1;jettySize=auto;html=1;exitX=0.5;exitY=1;exitDx=0;exitDy=0;entryX=0.5;entryY=0;entryDx=0;entryDy=0;" edge="1" parent="1" source="9DcgQ7vxHi_gFNOY2U_U-1" target="9DcgQ7vxHi_gFNOY2U_U-2">
          <mxGeometry relative="1" as="geometry" />
        </mxCell>
        <mxCell id="9DcgQ7vxHi_gFNOY2U_U-1" value="начало" style="rounded=1;whiteSpace=wrap;html=1;arcSize=50;" vertex="1" parent="1">
          <mxGeometry x="320" y="40" width="120" height="50" as="geometry" />
        </mxCell>
        <mxCell id="9DcgQ7vxHi_gFNOY2U_U-2" value="ввод:&lt;br&gt;d" style="shape=parallelogram;perimeter=parallelogramPerimeter;whiteSpace=wrap;html=1;fixedSize=1;" vertex="1" parent="1">
          <mxGeometry x="320" y="110" width="120" height="50" as="geometry" />
        </mxCell>
        <mxCell id="9DcgQ7vxHi_gFNOY2U_U-16" style="edgeStyle=orthogonalEdgeStyle;rounded=0;orthogonalLoop=1;jettySize=auto;html=1;exitX=0.5;exitY=1;exitDx=0;exitDy=0;exitPerimeter=0;entryX=0.5;entryY=0;entryDx=0;entryDy=0;" edge="1" parent="1" source="9DcgQ7vxHi_gFNOY2U_U-4" target="9DcgQ7vxHi_gFNOY2U_U-5">
          <mxGeometry relative="1" as="geometry" />
        </mxCell>
        <mxCell id="9DcgQ7vxHi_gFNOY2U_U-4" value="цикл 1&lt;br&gt;i=d" style="strokeWidth=2;html=1;shape=mxgraph.flowchart.loop_limit;whiteSpace=wrap;strokeColor=default;" vertex="1" parent="1">
          <mxGeometry x="320" y="180" width="120" height="50" as="geometry" />
        </mxCell>
        <mxCell id="9DcgQ7vxHi_gFNOY2U_U-17" style="edgeStyle=orthogonalEdgeStyle;rounded=0;orthogonalLoop=1;jettySize=auto;html=1;exitX=0.5;exitY=1;exitDx=0;exitDy=0;entryX=0.5;entryY=0;entryDx=0;entryDy=0;" edge="1" parent="1" source="9DcgQ7vxHi_gFNOY2U_U-5" target="9DcgQ7vxHi_gFNOY2U_U-6">
          <mxGeometry relative="1" as="geometry" />
        </mxCell>
        <mxCell id="9DcgQ7vxHi_gFNOY2U_U-5" value="ввод:&lt;br&gt;A[i]" style="shape=parallelogram;perimeter=parallelogramPerimeter;whiteSpace=wrap;html=1;fixedSize=1;" vertex="1" parent="1">
          <mxGeometry x="320" y="250" width="120" height="50" as="geometry" />
        </mxCell>
        <mxCell id="9DcgQ7vxHi_gFNOY2U_U-6" value="sum = sum+A[i]" style="rounded=0;whiteSpace=wrap;html=1;" vertex="1" parent="1">
          <mxGeometry x="320" y="320" width="120" height="50" as="geometry" />
        </mxCell>
        <mxCell id="9DcgQ7vxHi_gFNOY2U_U-20" style="edgeStyle=orthogonalEdgeStyle;rounded=0;orthogonalLoop=1;jettySize=auto;html=1;exitX=0.5;exitY=0;exitDx=0;exitDy=0;exitPerimeter=0;entryX=0.5;entryY=0;entryDx=0;entryDy=0;" edge="1" parent="1" source="9DcgQ7vxHi_gFNOY2U_U-7" target="9DcgQ7vxHi_gFNOY2U_U-9">
          <mxGeometry relative="1" as="geometry" />
        </mxCell>
        <mxCell id="9DcgQ7vxHi_gFNOY2U_U-7" value="" style="strokeWidth=2;html=1;shape=mxgraph.flowchart.loop_limit;whiteSpace=wrap;rotation=-180;" vertex="1" parent="1">
          <mxGeometry x="320" y="390" width="120" height="50" as="geometry" />
        </mxCell>
        <mxCell id="9DcgQ7vxHi_gFNOY2U_U-8" value="цикл 1" style="text;html=1;strokeColor=none;fillColor=none;align=center;verticalAlign=middle;whiteSpace=wrap;rounded=0;" vertex="1" parent="1">
          <mxGeometry x="350" y="400" width="60" height="30" as="geometry" />
        </mxCell>
        <mxCell id="9DcgQ7vxHi_gFNOY2U_U-21" style="edgeStyle=orthogonalEdgeStyle;rounded=0;orthogonalLoop=1;jettySize=auto;html=1;exitX=0.5;exitY=1;exitDx=0;exitDy=0;entryX=0.5;entryY=0;entryDx=0;entryDy=0;" edge="1" parent="1" source="9DcgQ7vxHi_gFNOY2U_U-9" target="9DcgQ7vxHi_gFNOY2U_U-10">
          <mxGeometry relative="1" as="geometry" />
        </mxCell>
        <mxCell id="9DcgQ7vxHi_gFNOY2U_U-9" value="вывод:&lt;br&gt;sum/d" style="shape=parallelogram;perimeter=parallelogramPerimeter;whiteSpace=wrap;html=1;fixedSize=1;" vertex="1" parent="1">
          <mxGeometry x="320" y="460" width="120" height="50" as="geometry" />
        </mxCell>
        <mxCell id="9DcgQ7vxHi_gFNOY2U_U-10" value="конец" style="rounded=1;whiteSpace=wrap;html=1;arcSize=50;" vertex="1" parent="1">
          <mxGeometry x="320" y="530" width="120" height="50" as="geometry" />
        </mxCell>
        <mxCell id="9DcgQ7vxHi_gFNOY2U_U-11" value="" style="strokeWidth=1;html=1;shape=mxgraph.flowchart.annotation_1;align=left;pointerEvents=1;" vertex="1" parent="1">
          <mxGeometry x="480" y="110" width="10" height="50" as="geometry" />
        </mxCell>
        <mxCell id="9DcgQ7vxHi_gFNOY2U_U-12" value="" style="endArrow=none;dashed=1;html=1;rounded=0;entryX=1;entryY=0.5;entryDx=0;entryDy=0;exitX=0;exitY=0.5;exitDx=0;exitDy=0;exitPerimeter=0;" edge="1" parent="1" source="9DcgQ7vxHi_gFNOY2U_U-11" target="9DcgQ7vxHi_gFNOY2U_U-2">
          <mxGeometry width="50" height="50" relative="1" as="geometry">
            <mxPoint x="380" y="380" as="sourcePoint" />
            <mxPoint x="430" y="330" as="targetPoint" />
          </mxGeometry>
        </mxCell>
        <mxCell id="9DcgQ7vxHi_gFNOY2U_U-13" value="d - длина массива" style="text;html=1;strokeColor=none;fillColor=none;align=center;verticalAlign=middle;whiteSpace=wrap;rounded=0;" vertex="1" parent="1">
          <mxGeometry x="490" y="120" width="60" height="30" as="geometry" />
        </mxCell>
        <mxCell id="9DcgQ7vxHi_gFNOY2U_U-15" style="edgeStyle=orthogonalEdgeStyle;rounded=0;orthogonalLoop=1;jettySize=auto;html=1;exitX=0.5;exitY=1;exitDx=0;exitDy=0;entryX=0.5;entryY=0;entryDx=0;entryDy=0;entryPerimeter=0;" edge="1" parent="1" source="9DcgQ7vxHi_gFNOY2U_U-2" target="9DcgQ7vxHi_gFNOY2U_U-4">
          <mxGeometry relative="1" as="geometry" />
        </mxCell>
        <mxCell id="9DcgQ7vxHi_gFNOY2U_U-18" style="edgeStyle=orthogonalEdgeStyle;rounded=0;orthogonalLoop=1;jettySize=auto;html=1;exitX=0.5;exitY=1;exitDx=0;exitDy=0;entryX=0.5;entryY=1;entryDx=0;entryDy=0;entryPerimeter=0;" edge="1" parent="1" source="9DcgQ7vxHi_gFNOY2U_U-6" target="9DcgQ7vxHi_gFNOY2U_U-7">
          <mxGeometry relative="1" as="geometry" />
        </mxCell>
      </root>
    </mxGraphModel>
  </diagram>
</mxfile>
